<?xml version="1.0" encoding="UTF-8"?>
<svg id="Layer_6" data-name="Layer 6" xmlns="http://www.w3.org/2000/svg" viewBox="0 0 156.22 163.33">
  <defs>
    <style>
      .cls-1, .cls-2 {
        fill: #078341;
        stroke: #078341;
        stroke-miterlimit: 10;
      }

      .cls-3 {
        fill: #fff;
      }

      .cls-2 {
        stroke-width: .75px;
      }
    </style>
  </defs>
  <path class="cls-1" d="M138.4,137.5c.17-.09.33-.18.51-.26,3.43-1.45,5.94-1.5,9.27-3.18.89-.8,2.45-3.49,2.85-5.03,2.64-10.3-.65-14.61-3.43-19.48-3.6-6.3-15.05-24.51-15.05-24.51,0,0,10.46-3.8,13.99-18.45,3.37-13.99-8.79-26.84-8.79-26.84,0,0,13.52-19.45,4.66-23.71-8.85-4.26-19.05,14.75-19.05,14.75l-5.59-2.1s7.46-20.05-3.46-21.31c-9.11-1.06-16.19,20.25-16.19,20.25,0,0-19.85,8.06-24.05,22.71-4.86,16.95,8.11,29.96,8.11,29.96,0,0-2.56.97-6.09,2.35-1.06.41-3.72,1.19-5.67,2.7-3.12,2.42-3.83,6.57-3.26,9.27.66,3.14,2.67,5.23,4.03,6.1,3.15,2.02,9.89,2.88,9.89,2.88,0,0-.77,10.07,1.58,26.88,1.57,11.26,8.13,16.87,8.85,17.46.19-.02.39-.03.6-.02,5.16.37,9.8-.07,14.93-.1,1.62-.51,4.46-2.08,5.83-3.71,2.9-3.43,4.02-13.03,4.02-13.03l2.13-1.33c11.46,9.59,19.32,7.53,19.32,7.53l.05.23Z"/>
  <path class="cls-1" d="M104.09,43.95c-.2.04-14.32-10.71-20.47,4.89-5.17,13.11,3.28,25.86,16.4,27.99,13.12,2.13,24.18-2.6,28.24-13.72s-4.52-22.89-24.17-19.16Z"/>
  <path class="cls-1" d="M127.06,30.67s6.23-12.66,12.12-10.15c5.89,2.51-3.34,14.92-3.34,14.92l-8.77-4.77Z"/>
  <path class="cls-1" d="M102.7,25.58s4.99-14.82,10.91-14.13c5.92.68.93,14.53.93,14.53l-11.84-.4Z"/>
  <path class="cls-2" d="M72.86,87.28s.28-2.39-1.15-1.66c-.77.39-1.15,1.79-1.15,1.79,0,0-2.91-1.54-3.45-.34s1.17,1.95,1.17,1.95c0,0-.93.15-1.17.95-.28.94.85,1.47.85,1.47,0,0-.39.51-.32,1.08.06.49,2.35,1.11,2.35,1.11l2.86-6.34Z"/>
  <path class="cls-2" d="M111.46,98.46s-3.33-.2-3.33,2,2.29,1.15,2.29,1.15c0,0-1.29-.02-1.02,1.04s2.46,1.27,4.13.53-3.66.4-2.33,1.27,3.59-.33,3.59-.33l-3.33-5.66Z"/>
  <path class="cls-1" d="M137.81,137.31l.58,3.27,2.75-2.18,1.6,1.18,2.66-2.64,2.75-.25.04-2.1c-6.14-.31-10.37,2.72-10.37,2.72Z"/>
  <path class="cls-1" d="M92.17,148.24l-.78,1.62,3.89-.19.43,1.28,3.5-1.01,1.67,1.15,5.14-2.83s-6.73-1.9-13.86-.03Z"/>
  <path class="cls-1" d="M7.99,91h45.16l-6.99,57.36c-.19,1.56-1.52,2.74-3.09,2.74h-24.36c-1.56,0-2.88-1.16-3.09-2.7l-7.63-57.39Z"/>
  <polygon class="cls-1" points="26.11 81.41 34.37 79.81 35.43 84.74 27.18 86.33 26.11 81.41"/>
  <polygon class="cls-1" points="26.78 71.15 30.57 66.49 37.43 71.15 33.84 75.54 26.78 71.15"/>
  <path class="cls-3" d="M30.59,122.84l-4.83-.03c-.35-.01-.7.02-1.05-.03-.34-.08-.63-.36-.73-.69-.06-.21-.05-.43.02-.63.08-.2.2-.38.31-.57l.58-1.01,1.41.81-1.5-5.46-5.46,1.5,1.41.81-1.4,2.49c-.4.75-.64,1.46-.74,2.16-.1.72-.03,1.49.23,2.2.41,1.17,1.33,2.15,2.41,2.66.55.25,1.09.39,1.75.47.64.09,1.35.07,2.03.08l5.54.03.03-4.76Z"/>
  <path class="cls-3" d="M34.28,116.39l2.07,3.63.54.95c.13.25.31.49.32.78.05.58-.49,1.11-1.07,1.06h-1.57s0-1.62,0-1.62l-3.98,4.03,4.03,3.98v-1.63s1.12,0,1.12,0c1.09,0,2.26.03,3.2-.22.93-.2,1.81-.71,2.48-1.45.66-.74,1.09-1.71,1.17-2.69.1-1-.15-1.87-.59-2.86-.23-.49-.52-.97-.79-1.45l-.7-1.23-2.07-3.63-4.14,2.36Z"/>
  <path class="cls-3" d="M26.85,116.42l2.44-4.17c.19-.3.33-.62.56-.89.24-.26.62-.37.96-.28.21.05.4.17.54.33.13.17.22.37.34.55l.59,1.01-1.4.82,5.48,1.44,1.44-5.48-1.4.82-1.45-2.46c-.45-.72-.94-1.28-1.5-1.72-.58-.44-1.28-.77-2.02-.9-1.22-.23-2.53.07-3.5.76-.49.35-.89.75-1.29,1.28-.4.51-.73,1.13-1.08,1.72l-2.8,4.78,4.11,2.4Z"/>
</svg>